<mxfile host="app.diagrams.net" modified="2024-03-12T02:07:36.025Z" agent="Mozilla/5.0 (Macintosh; Intel Mac OS X 10_15_7) AppleWebKit/537.36 (KHTML, like Gecko) Chrome/122.0.0.0 Safari/537.36" version="24.0.4" etag="OrSdQwih-mx5tuM2_SfG" type="github">
  <diagram name="第 1 页" id="rHtPqaDc-Ek13NTxF186">
    <mxGraphModel>
      <root>
        <mxCell id="0" />
        <mxCell id="1" parent="0" />
      </root>
    </mxGraphModel>
  </diagram>
</mxfile>
